<svg id="sammenflet" xmlns="http://www.w3.org/2000/svg" xmlns:xlink="http://www.w3.org/1999/xlink" viewBox="0 0 368.5 368.5"><defs><style>.cls-1{fill:none;}.cls-2{clip-path:url(#clip-path);}.cls-3{fill:#fce900;}.cls-4{fill:#1a1a18;}</style><clipPath id="clip-path"><rect class="cls-1" width="368.5" height="368.5"/></clipPath></defs><g class="cls-2"><path class="cls-3" d="M368.5,184.25A184.25,184.25,0,1,1,184.25,0,184.25,184.25,0,0,1,368.5,184.25"/><path class="cls-4" d="M117,124.79c-1.22,1.32-2.52,2.57-3.63,4a249.66,249.66,0,0,0-28.9,46.45c-6.38,13-12.1,26.39-18.17,39.57-1.23,2.67-2.26,5.5-5.09,7.47a13.43,13.43,0,0,1,.37-3.14c3.91-10.57,7.48-21.29,12-31.61a289.76,289.76,0,0,1,32.72-57.26c2.43-3.28,5.15-6.37,7.88-9.42a11.76,11.76,0,0,1,3.64-2.74c2.64-1.26,5-.12,5.25,2.76a20,20,0,0,1-.58,7.07c-2.42,8.9-5,17.75-7.64,26.59-2.06,7.05-4.21,14.07-5.7,21.49a42.35,42.35,0,0,0,2.27-3.83c11.59-25.06,28.68-46,48.9-64.48,8.19-7.47,16.93-14.34,25.52-21.36A23.58,23.58,0,0,1,192,82.79c3.74-1.46,6.12.59,5.35,4.56a21.26,21.26,0,0,1-2.11,5.75q-9.07,16.94-18.32,33.77c-13.1,23.82-25.57,47.94-34.83,73.56C137.7,212.52,135,225,132.93,237.7c-.67,4.07-.76,4.05-3.26,6.85-2.38-1.8-2.53-4.49-2.18-6.88,1.21-8.26,2.26-16.59,4.26-24.67,5.34-21.53,14.67-41.52,25.05-61,9.72-18.23,19.84-36.26,29.75-54.39,1-1.77,1.79-3.63,3.13-6.4a19.52,19.52,0,0,0-3.37,1.55c-23.74,18.72-45.46,39.33-61.26,65.47-7.27,12-12.94,24.83-18.18,37.84a52,52,0,0,1-2.57,5.57c-.93,1.72-2.28,3.23-4.48,2.57s-2.48-2.72-2.4-4.63a24,24,0,0,1,.86-5.54q6.15-21.43,12.43-42.82c1.92-6.55,4-13.07,5.9-19.63.6-2,.89-4.18,1.33-6.28l-.93-.52"/><path class="cls-4" d="M259.1,178.81a8.73,8.73,0,0,0-8.82,1.06,34.43,34.43,0,0,0-7.68,7.36C236.26,196,233,206,231.23,216.59a10.08,10.08,0,0,0,.26,2.59l1,.26c8.8-13.46,17.61-26.91,26.59-40.63m-5.4,54c-3-2-3.59-4.81-3.18-7.73,1-6.93,2.2-13.82,3.38-20.72a17.43,17.43,0,0,0,.57-5.28,22.18,22.18,0,0,0-2.1,2.35c-4.06,6.12-8,12.31-12.12,18.41a27.68,27.68,0,0,1-4.56,5.48c-4.11,3.56-8.68,2.36-10.51-2.79a12.92,12.92,0,0,1-.45-6c1.79-11.63,5.46-22.64,12.51-32.17a41.87,41.87,0,0,1,9.56-9.08c4.48-3.15,9.59-3.06,14.66-.77a16.6,16.6,0,0,0,4.79,1.2c3.46.41,4.88,2.36,3.57,5.6-.95,2.36-2.5,4.48-3.45,6.84a133.48,133.48,0,0,0-8.81,36.25,27.68,27.68,0,0,1-1.64,6.36c-.3.8-1.37,1.32-2.22,2.08"/><path class="cls-4" d="M217.91,171.92a64.19,64.19,0,0,0-5.8,3.79,76.64,76.64,0,0,0-20.34,26.06c-3.92,7.93-7,16.31-10.37,24.5-.59,1.41-.85,3.07-1.76,4.21a4.33,4.33,0,0,1-3.35,1.58,3.8,3.8,0,0,1-2.38-2.78,28.09,28.09,0,0,1,1.12-8.53c2-6,4.22-11.92,6.69-17.73,2.87-6.75,6-13.38,9.21-20,.85-1.75,2.27-3.23,4.11-5.79l.86,5.38c4.45-4.22,8.83-8.5,13.35-12.61a17.39,17.39,0,0,1,9.61-4.48c5-.65,7.57,1.64,7,6.6a21,21,0,0,1-1.38,4.91c-2.94,8-6.21,15.92-8.83,24-2,6.31-3.43,12.85-4.87,19.34-1,4.57-1.26,5.35-4.52,7.56-2.53-2.14-2.74-5-2.07-7.88,1.74-7.47,3.42-15,5.69-22.31,2.07-6.67,4.88-13.12,7.36-19.67.64-1.69,1.25-3.4,1.88-5.11l-1.26-1.1"/><path class="cls-4" d="M305.74,184.09a34.58,34.58,0,0,0-2.34-4.39c-2.59-3.56-5.49-4.13-8.63-1.13a65.15,65.15,0,0,0-8.56,10.11c-2.3,3.36-1.64,4.89,1.83,7a62.53,62.53,0,0,1,6.49,4.06c6.77,5.41,7.45,12.2,1.76,18.62-5,5.66-11.29,9.37-18.92,10.24-5.64.64-9.76-2.91-9.5-8.06a8.08,8.08,0,0,1,1.48-4.22c1.67-2.22,4.1-1.77,5.09.78a37.66,37.66,0,0,1,1.09,3.76c6.06.3,14.52-4.58,16.66-9.37,1.19-2.67.1-4.78-1.82-6.36a51.18,51.18,0,0,0-6.45-4.12c-6.48-3.81-8.27-8.61-4.28-14.89a55.88,55.88,0,0,1,11.3-13c6.42-5.28,14.55-2.24,17.05,5.63.85,2.65.59,3.3-2.25,5.32"/><path class="cls-4" d="M176.75,176.21c2.73,2.78,1.31,4.65.69,6.44-3.56,10.51-7.39,20.92-10.68,31.51-1.45,4.66-1.95,9.62-2.64,14.49-.27,1.93-.74,3.42-2.88,3.44s-3.09-1.56-3-3.4a30.16,30.16,0,0,1,1-8.08c3-9.41,6.26-18.76,9.59-28.07,1.38-3.84,3.11-7.57,4.83-11.29a52.67,52.67,0,0,1,3.16-5"/><path class="cls-4" d="M178.14,161.3a8.45,8.45,0,0,1,.71-8.05,99.23,99.23,0,0,1,7.74-10.62,4.93,4.93,0,0,1,2.56-1.54,2.87,2.87,0,0,1,2.19.67c.3.27.18,1.29,0,1.85a4.64,4.64,0,0,1-1.27,1.57A43,43,0,0,0,180,159.12a13.57,13.57,0,0,1-1.83,2.18"/></g></svg>